<?xml version="1.0" encoding="utf-8"?>
<!-- Generator: Adobe Illustrator 28.0.0, SVG Export Plug-In . SVG Version: 6.00 Build 0)  -->
<svg version="1.1" id="Layer_1" xmlns="http://www.w3.org/2000/svg" xmlns:xlink="http://www.w3.org/1999/xlink" x="0px" y="0px"
	 viewBox="0 0 220 37.9" style="enable-background:new 0 0 220 37.9;" xml:space="preserve">
<g>
	<path d="M210.6,19.5l0.1,2.7h-0.4c-0.3-1.7-0.8-2-3-2v8.1c0,0.9,0.5,1.4,1.4,1.4v0.4h-4.2v-0.4c0.9,0,1.4-0.4,1.4-1.4v-8.1
		c-2.3,0-2.7,0.3-3,2h-0.4l0.1-2.7H210.6L210.6,19.5z M196.5,19.3c-2.6,0-4.7,2.1-4.7,5.5s2.1,5.5,4.7,5.5s4.7-2.1,4.7-5.5
		S199.1,19.3,196.5,19.3z M196.5,29.6c-2,0-3.1-1.9-3.1-4.8s1.1-4.8,3.1-4.8s3.1,1.9,3.1,4.8C199.7,27.7,198.5,29.6,196.5,29.6z
		 M218.9,28.8c-0.2-0.5-3.7-9.4-3.7-9.4h-0.4c0,0-3.1,8.2-3.5,9.1c-0.4,0.9-0.9,1.2-1.2,1.2v0.4h2.9v-0.4c-0.4,0-0.9-0.3-0.9-0.8
		v-0.4c0-0.1,0.3-0.9,0.7-1.9h3.7c0.4,1,0.7,1.8,0.7,1.8c0,0.1,0.1,0.3,0.1,0.5c0,0.4-0.3,0.8-1,0.8v0.4h3.7v-0.4
		C219.6,29.7,219.1,29.2,218.9,28.8z M213.1,25.9c0.7-1.9,1.6-4.2,1.6-4.2s0.9,2.3,1.5,4.2H213.1z M181.3,27.3
		c-0.5,1.1-1.1,2.1-2.8,2.1h-1.7c-0.6,0-0.9-0.2-0.9-0.7v-3.8h2.3c0.9,0,1.4,0.5,1.5,1.4h0.4v-3.6h-0.4c-0.1,1-0.6,1.5-1.4,1.5h-2.4
		v-3.5c0-0.4,0.2-0.5,0.6-0.5h2c1.3,0,1.7,0.5,2,1.7h0.4l-0.1-2.4h-7.6v0.4c0.9,0,1.3,0.4,1.3,1.4v7.1c0,0.9-0.4,1.4-1.3,1.4v0.4
		h7.8l0.7-2.7C181.7,27.3,181.3,27.3,181.3,27.3L181.3,27.3z M189.3,19.3l0.3,3.5h-0.4c-0.5-1.8-1.3-2.8-2.6-2.8
		c-0.9,0-1.4,0.6-1.4,1.4c0,0.9,0.7,1.5,1.5,2.1c0.9,0.6,1.4,1,1.7,1.2c0.8,0.6,1.5,1.5,1.5,2.7c0,1.7-1.3,3-3,3
		c-1,0-1.7-0.5-2.2-0.5c-0.3,0-0.4,0.3-0.5,0.5h-0.4l-0.4-3.5h0.4c0.6,1.8,1.6,2.9,2.9,2.9c1,0,1.7-0.7,1.7-1.8c0-1-0.5-1.5-1.1-1.9
		c-0.7-0.5-1.6-1.1-2.1-1.4c-0.8-0.6-1.3-1.3-1.3-2.5c0-1.5,1-2.7,2.6-2.7c0.7,0,1.5,0.5,1.9,0.5c0.3,0,0.5-0.2,0.5-0.5
		C189,19.3,189.3,19.3,189.3,19.3L189.3,19.3z M168.3,19.5v0.4c0.8,0,1.3,0.6,1.3,1.6v5.6l-5.5-7.5h-2.4V20c0.5,0,0.9,0.2,1,0.5
		c0,0,0.1,0.2,0.3,0.4V28c0,1.2-0.4,1.8-1.4,1.8v0.4h3.4v-0.4c-0.8,0-1.3-0.6-1.3-1.5v-6.5c2,2.7,6.3,8.6,6.3,8.6h0.2v-8.5
		c0-1.3,0.6-1.8,1.4-1.8v-0.6H168.3z M156.6,19.5v0.4c0.8,0,1.3,0.6,1.3,1.6v5.6l-5.5-7.5H150V20c0.5,0,0.9,0.2,1,0.5
		c0,0,0.1,0.2,0.3,0.4V28c0,1.2-0.4,1.8-1.4,1.8v0.4h3.4v-0.4c-0.8,0-1.3-0.6-1.3-1.5v-6.5c2,2.7,6.3,8.6,6.3,8.6h0.2v-8.5
		c0-1.3,0.6-1.8,1.4-1.8v-0.6H156.6L156.6,19.5z M142.5,16.4v-0.3h-3.3l-4.3,11.4l-4.3-11.4h-3.3v0.4c1.4,0,1.8,0.8,1.8,2.1v8.6
		c0,2-0.6,2.5-1.8,2.5v0.4h4.3v-0.4c-1.2,0-1.8-0.5-1.8-2.5v-9l4.4,11.9h0.4l4.6-12.1v9.2c0,2-0.4,2.5-1.7,2.5v0.4h4.9v-0.4
		c-1.2,0-1.7-0.5-1.7-2.5v-8.8C140.8,16.8,141.6,16.4,142.5,16.4z M146.5,21.2c0-0.9,0.5-1.4,1.4-1.4v-0.3h-4.3v0.4
		c0.9,0,1.4,0.4,1.4,1.4v7.1c0,0.9-0.5,1.4-1.4,1.4v0.4h4.3v-0.4c-0.9,0-1.4-0.4-1.4-1.4V21.2z M107.5,19.3c-2.6,0-4.7,2.1-4.7,5.5
		s2.1,5.5,4.7,5.5s4.7-2.1,4.7-5.5S110.1,19.3,107.5,19.3z M107.5,29.6c-2,0-3.1-1.9-3.1-4.8s1.1-4.8,3.1-4.8s3.1,1.9,3.1,4.8
		S109.5,29.6,107.5,29.6z M121.4,19.5h-7.7v0.4c0.9,0,1.3,0.4,1.3,1.4v7.1c0,0.9-0.4,1.4-1.3,1.4v0.4h4.1v-0.4
		c-0.9,0-1.3-0.4-1.3-1.4V25h2.2c0.9,0,1.4,0.5,1.5,1.4h0.4v-3.7h-0.4c-0.1,1-0.6,1.5-1.4,1.5h-2.3v-3.5c0-0.4,0.2-0.5,0.6-0.5h2.1
		c1.3,0,1.7,0.5,2,1.7h0.4C121.6,21.9,121.4,19.5,121.4,19.5z M86.1,19.5l0.1,2.7h-0.4c-0.3-1.7-0.8-2-3.1-2v8.1
		c0,0.9,0.5,1.4,1.4,1.4v0.4h-4.2v-0.4c0.9,0,1.4-0.4,1.4-1.4v-8.1c-2.3,0-2.7,0.3-3.1,2h-0.4l0.2-2.7H86.1z M94.3,19.9v-0.4h3.2
		v0.4c-0.5,0-1.2,0.5-1.5,1c-0.3,0.6-2.6,4.3-2.6,4.3v3.1c0,1,0.4,1.4,1.5,1.4v0.4h-4.5v-0.4c1.1,0,1.5-0.4,1.5-1.4v-2.9
		c0,0-2.5-4-2.8-4.5s-0.9-1-1.5-1v-0.4h4.2v0.4c-0.6,0-1,0.3-1,0.6c0,0.2,0.1,0.4,0.2,0.6c0.1,0.1,2.1,3.5,2.1,3.5s2-3.5,2.1-3.6
		c0.1-0.1,0.1-0.2,0.1-0.3C95.2,20.2,95.1,19.9,94.3,19.9L94.3,19.9z M69.3,19.3l0.3,3.5h-0.4C68.7,21,67.8,20,66.5,20
		c-0.9,0-1.4,0.6-1.4,1.4c0,0.9,0.7,1.5,1.5,2.1c0.9,0.6,1.4,1,1.7,1.2c0.8,0.6,1.5,1.5,1.5,2.7c0,1.7-1.3,3-3,3
		c-1.1,0-1.7-0.5-2.2-0.5c-0.3,0-0.4,0.3-0.5,0.5h-0.4l-0.4-3.5h0.4c0.6,1.8,1.6,2.9,2.9,2.9c1,0,1.7-0.7,1.7-1.8
		c0-1-0.5-1.5-1.1-1.9c-0.7-0.5-1.6-1.1-2.1-1.4c-0.8-0.6-1.3-1.3-1.3-2.5c0-1.5,1-2.7,2.6-2.7c0.7,0,1.5,0.5,1.9,0.5
		c0.3,0,0.5-0.2,0.5-0.5C68.9,19.3,69.3,19.3,69.3,19.3z M75.1,21.2c0-0.9,0.5-1.4,1.4-1.4v-0.3h-4.2v0.4c0.9,0,1.4,0.4,1.4,1.4v7.1
		c0,0.9-0.5,1.4-1.4,1.4v0.4h4.2v-0.4c-0.9,0-1.4-0.4-1.4-1.4V21.2z M50.9,27.3c-0.5,1.1-1.1,2.1-2.7,2.1h-1.7
		c-0.6,0-0.9-0.2-0.9-0.7v-3.8h2.3c0.9,0,1.3,0.5,1.5,1.4h0.4v-3.6h-0.4c-0.1,1-0.6,1.5-1.4,1.5h-2.4v-3.5c0-0.4,0.2-0.5,0.6-0.5h2
		c1.3,0,1.7,0.5,2,1.7h0.4l-0.1-2.4h-7.6v0.4c0.9,0,1.3,0.4,1.3,1.4v7.1c0,0.9-0.4,1.4-1.3,1.4v0.4h7.8l0.7-2.7h-0.5L50.9,27.3z
		 M60.9,29.2c-0.2-0.3-2.6-3.5-3.1-4.2c1.9-0.4,2.6-1.4,2.6-2.8c0-1.6-1.2-2.7-3.5-2.7h-4.2v0.4c0.9,0,1.3,0.4,1.3,1.4v7
		c0,0.9-0.4,1.4-1.3,1.4v0.4h4.1v-0.4c-0.9,0-1.3-0.4-1.3-1.4v-3.1h0.8l3.4,4.9H62v-0.3C61.6,29.7,61.2,29.5,60.9,29.2z M55.5,24.6
		V21c0-0.7,0.2-0.9,1-0.9c1.8,0,2.4,0.9,2.4,2.2c0,1.6-1.2,2.3-3,2.3H55.5z M28.5,21.2c0-0.9,0.5-1.4,1.4-1.4v-0.3h-4.3v0.4
		c0.9,0,1.4,0.4,1.4,1.4v7.1c0,0.9-0.5,1.4-1.4,1.4v0.4h4.3v-0.4c-0.9,0-1.4-0.4-1.4-1.4C28.5,28.4,28.5,21.2,28.5,21.2z M35.5,19.9
		v-0.4h-3.9v0.4c0.5,0,1,0.3,1.3,1.1c0.3,0.8,3.8,9.2,3.8,9.2h0.2c0,0,3.1-8.5,3.3-9.2s0.7-1.1,1.2-1.1v-0.4h-3v0.4
		c0.7,0,1,0.4,1,0.8c0,0.1,0,0.3-0.1,0.4c-0.1,0.2-2.2,6.2-2.2,6.2s-2.5-6.1-2.6-6.3c-0.1-0.1-0.1-0.3-0.1-0.5
		C34.4,20.1,34.8,19.9,35.5,19.9z M0,16.4c1.2,0,1.8,0.6,1.8,2.2v6.5c0,3.3,1.8,5.1,5,5.1c2.7,0,4.8-1.6,4.8-4.8v-7.1
		c0-1.1,0.3-1.8,1.7-1.8v-0.4H9v0.4c1.2,0,1.7,0.5,1.7,2c0,1.4,0.1,5.2,0.1,7.4S9.2,29.5,7,29.5c-2.1,0-3.7-1.2-3.7-3.8v-7.3
		c0-1.1,0.4-1.8,1.7-1.8v-0.5H0V16.4z M20,19.5v0.4c0.8,0,1.3,0.6,1.3,1.6v5.6l-5.5-7.5h-2.4V20c0.5,0,0.8,0.2,1.1,0.5
		c0,0,0.1,0.2,0.3,0.4V28c0,1.2-0.4,1.8-1.4,1.8v0.4h3.4v-0.4c-0.8,0-1.3-0.6-1.3-1.5v-6.5c2,2.7,6.3,8.6,6.3,8.6H22v-8.5
		c0-1.3,0.6-1.8,1.4-1.8v-0.6H20z"/>
</g>
</svg>
