<svg x="0" y="0" viewBox="0 0 149.535 9.664">
<g>
	<path class="secondary-fill" d="M143.174,2.332l0.055,1.848h-0.242c-0.225-1.186-0.512-1.381-2.07-1.381V8.32c0,0.646,0.33,0.934,0.932,0.934
		v0.26h-2.891v-0.26c0.604,0,0.934-0.287,0.934-0.934V2.799c-1.559,0-1.848,0.195-2.072,1.381h-0.24l0.055-1.848H143.174z"/>
	<path class="secondary-fill" d="M133.584,2.193c-1.771,0-3.207,1.457-3.207,3.721s1.436,3.719,3.207,3.719s3.207-1.455,3.207-3.719
		S135.355,2.193,133.584,2.193z M133.584,9.213c-1.344,0-2.113-1.293-2.113-3.299c0-2.006,0.77-3.297,2.113-3.297
		c1.346,0,2.115,1.291,2.115,3.297C135.699,7.92,134.93,9.213,133.584,9.213z"/>
	<path class="secondary-fill" d="M148.779,8.629c-0.131-0.336-2.537-6.398-2.537-6.398H146c0,0-2.127,5.559-2.389,6.211
		c-0.262,0.654-0.578,0.812-0.83,0.812v0.26h1.959v-0.26c-0.287,0-0.611-0.201-0.611-0.514c0-0.094,0.008-0.205,0.033-0.271
		c0.018-0.055,0.221-0.6,0.477-1.295h2.488c0.254,0.689,0.449,1.221,0.457,1.25c0.033,0.094,0.076,0.223,0.076,0.316
		c0,0.279-0.225,0.514-0.645,0.514v0.26h2.52v-0.26C149.229,9.254,148.91,8.965,148.779,8.629z M144.826,6.67
		c0.486-1.318,1.061-2.873,1.061-2.873s0.576,1.564,1.055,2.873H144.826z"/>
	<path class="secondary-fill" d="M123.23,7.649c-0.318,0.746-0.727,1.4-1.865,1.4c-0.242,0-0.746,0-1.139,0c-0.416,0-0.596-0.145-0.596-0.486
		c0-0.133,0-1.32,0-2.557c0.279,0,1.131,0,1.547,0c0.598,0,0.914,0.338,1.008,0.973h0.242V4.496h-0.26
		c-0.037,0.689-0.393,1.025-0.934,1.025c-0.459,0-1.346,0-1.604,0c0-1.184,0-2.287,0-2.404c0-0.264,0.168-0.318,0.391-0.318
		c0.225,0,0.729,0,1.381,0c0.857,0,1.156,0.353,1.344,1.156h0.242l-0.057-1.623h-5.166v0.262c0.602,0,0.877,0.285,0.877,0.932V8.32
		c0,0.646-0.275,0.934-0.877,0.934v0.26h5.299l0.465-1.865H123.23z"/>
	<path class="secondary-fill" d="M128.697,2.184l0.205,2.369h-0.262c-0.354-1.166-0.951-1.885-1.809-1.885c-0.617,0-0.971,0.416-0.971,0.971
		c0,0.633,0.467,1.006,1.045,1.398c0.578,0.391,0.969,0.654,1.156,0.783c0.535,0.375,1.045,1.043,1.045,1.811
		c0,1.168-0.877,2.033-2.033,2.033c-0.709,0-1.156-0.356-1.512-0.356c-0.195,0-0.289,0.197-0.336,0.356h-0.242l-0.299-2.389h0.262
		c0.438,1.223,1.08,1.939,1.979,1.939c0.67,0,1.174-0.459,1.174-1.211c0-0.682-0.359-1.008-0.783-1.307
		c-0.475-0.336-1.062-0.746-1.418-0.99c-0.555-0.377-0.896-0.889-0.896-1.715c0-0.988,0.652-1.809,1.773-1.809
		c0.484,0,1.025,0.316,1.324,0.316c0.223,0,0.316-0.148,0.336-0.316H128.697z"/>
	<path class="secondary-fill" d="M114.426,2.332v0.262c0.559,0,0.895,0.43,0.895,1.082c0,0.441,0,2.5,0,3.777l-3.73-5.121h-1.623v0.262
		c0.316,0,0.578,0.148,0.707,0.316c0.016,0.02,0.09,0.119,0.207,0.275c0,0.783,0,4.176,0,4.818c0,0.82-0.281,1.25-0.934,1.25v0.26
		h2.295v-0.26c-0.561,0-0.895-0.373-0.895-1.027c0-0.527,0-3.352,0-4.41c1.357,1.834,4.289,5.811,4.289,5.811h0.152
		c0,0,0-5.057,0-5.783c0-0.914,0.371-1.25,0.93-1.25V2.332H114.426z"/>
	<path class="secondary-fill" d="M106.459,2.332v0.262c0.561,0,0.895,0.43,0.895,1.082c0,0.441,0,2.5,0,3.777l-3.73-5.121H102v0.262
		c0.318,0,0.578,0.148,0.709,0.316c0.014,0.02,0.09,0.119,0.207,0.275c0,0.783,0,4.176,0,4.818c0,0.82-0.281,1.25-0.934,1.25v0.26
		h2.295v-0.26c-0.561,0-0.896-0.373-0.896-1.027c0-0.527,0-3.352,0-4.41c1.357,1.834,4.291,5.811,4.291,5.811h0.148
		c0,0,0-5.057,0-5.783c0-0.914,0.373-1.25,0.934-1.25V2.332H106.459z"/>
	<path class="secondary-fill" d="M96.832,0.262V0h-2.219l-2.893,7.76L88.812,0h-2.259v0.262c0.952,0,1.214,0.521,1.214,1.455s0,5.652,0,5.838
		c0,1.35-0.379,1.699-1.23,1.699v0.26h2.929v-0.26c-0.821,0-1.214-0.354-1.214-1.699c0-1.342,0-6.1,0-6.1l3.022,8.078h0.279
		l3.08-8.226c0,0,0,6.008,0,6.248c0,1.35-0.307,1.699-1.158,1.699v0.26h3.357v-0.26c-0.82,0-1.137-0.354-1.137-1.699
		c0-0.522,0-5.186,0-5.969C95.695,0.504,96.273,0.262,96.832,0.262z"/>
	<path class="secondary-fill" d="M99.574,3.525c0-0.647,0.33-0.932,0.934-0.932V2.332h-2.893v0.262c0.604,0,0.934,0.285,0.934,0.932V8.32
		c0,0.646-0.33,0.934-0.934,0.934v0.26h2.893v-0.26c-0.604,0-0.934-0.287-0.934-0.934V3.525z"/>
	<path class="secondary-fill" d="M73.095,2.203c-1.771,0-3.208,1.457-3.208,3.721c0,2.264,1.437,3.719,3.208,3.719
		c1.771,0,3.207-1.455,3.207-3.719C76.302,3.66,74.865,2.203,73.095,2.203z M73.095,9.221c-1.345,0-2.115-1.291-2.115-3.297
		c0-2.008,0.771-3.299,2.115-3.299c1.343,0,2.113,1.291,2.113,3.299C75.208,7.93,74.438,9.221,73.095,9.221z"/>
	<path class="secondary-fill" d="M82.524,2.332h-5.223v0.262c0.602,0,0.875,0.285,0.875,0.932V8.32c0,0.646-0.273,0.934-0.875,0.934v0.26h2.779
		v-0.26c-0.578,0-0.915-0.281-0.915-0.934c0-0.129,0-1.185,0-2.314c0.273,0,1.078,0,1.492,0c0.598,0,0.915,0.338,1.009,0.973h0.241
		V4.496h-0.261c-0.037,0.689-0.392,1.025-0.933,1.025c-0.457,0-1.298,0-1.549,0c0-1.166,0-2.281,0-2.404
		c0-0.264,0.168-0.318,0.392-0.318c0.225,0,0.784,0,1.437,0c0.858,0,1.155,0.353,1.343,1.156h0.243L82.524,2.332z"/>
	<path class="secondary-fill" d="M58.542,2.342l0.056,1.846h-0.242c-0.224-1.184-0.513-1.379-2.071-1.379V8.33c0,0.647,0.33,0.934,0.933,0.934
		v0.26h-2.891v-0.26c0.604,0,0.933-0.287,0.933-0.934V2.809c-1.557,0-1.846,0.195-2.07,1.379h-0.243l0.056-1.846H58.542z"/>
	<path class="secondary-fill" d="M64.083,2.602v-0.26h2.201v0.26c-0.316,0-0.816,0.348-1.026,0.691c-0.233,0.383-1.772,2.947-1.772,2.947v2.09
		c0,0.697,0.256,0.934,1.008,0.934v0.26h-3.041v-0.26c0.753,0,1.008-0.236,1.008-0.934V6.354c0,0-1.697-2.707-1.902-3.043
		c-0.206-0.334-0.616-0.709-1.008-0.709v-0.26h2.836v0.26c-0.394,0-0.673,0.178-0.673,0.383c0,0.133,0.067,0.291,0.112,0.373
		c0.048,0.084,1.438,2.369,1.438,2.369s1.381-2.396,1.417-2.461c0.038-0.066,0.057-0.148,0.057-0.233
		C64.736,2.836,64.624,2.602,64.083,2.602z"/>
	<path class="white-fill" d="M47.087,2.184l0.205,2.369h-0.26c-0.355-1.166-0.952-1.885-1.81-1.885c-0.616,0-0.971,0.416-0.971,0.971
		c0,0.633,0.466,1.006,1.045,1.398c0.579,0.391,0.97,0.654,1.156,0.783c0.534,0.375,1.044,1.043,1.044,1.811
		c0,1.168-0.877,2.033-2.032,2.033c-0.71,0-1.156-0.356-1.513-0.356c-0.194,0-0.288,0.197-0.334,0.356h-0.242l-0.3-2.389h0.262
		c0.438,1.223,1.081,1.939,1.978,1.939c0.67,0,1.175-0.459,1.175-1.211c0-0.682-0.359-1.008-0.784-1.307
		c-0.475-0.336-1.062-0.746-1.416-0.99c-0.556-0.377-0.895-0.889-0.895-1.715c0-0.988,0.651-1.809,1.771-1.809
		c0.485,0,1.026,0.316,1.324,0.316c0.224,0,0.316-0.148,0.336-0.316H47.087z"/>
	<path class="secondary-fill" d="M51.042,3.535c0-0.647,0.33-0.934,0.933-0.934v-0.26h-2.891v0.26c0.603,0,0.933,0.287,0.933,0.934V8.33
		c0,0.647-0.33,0.934-0.933,0.934v0.26h2.891v-0.26c-0.603,0-0.933-0.287-0.933-0.934V3.535z"/>
	<path class="secondary-fill" d="M34.588,7.649c-0.316,0.746-0.728,1.4-1.864,1.4c-0.244,0-0.746,0-1.139,0c-0.416,0-0.598-0.145-0.598-0.486
		c0-0.133,0-1.32,0-2.557c0.281,0,1.132,0,1.549,0c0.598,0,0.915,0.338,1.008,0.973h0.242V4.496h-0.261
		c-0.039,0.689-0.392,1.025-0.934,1.025c-0.46,0-1.345,0-1.605,0c0-1.184,0-2.287,0-2.404c0-0.264,0.169-0.318,0.393-0.318
		c0.224,0,0.727,0,1.38,0c0.858,0,1.157,0.353,1.344,1.156h0.242L34.29,2.332h-5.167v0.262c0.603,0,0.876,0.285,0.876,0.932V8.32
		c0,0.646-0.273,0.934-0.876,0.934v0.26h5.298l0.466-1.865H34.588z"/>
	<path class="secondary-fill" d="M41.416,8.936c-0.167-0.199-1.759-2.383-2.112-2.869c1.285-0.273,1.739-0.928,1.739-1.869
		c0-1.119-0.84-1.865-2.369-1.865c-0.187,0-2.873,0-2.873,0v0.262c0.602,0,0.878,0.285,0.878,0.932V8.32
		c0,0.646-0.275,0.934-0.878,0.934v0.26h2.78v-0.26c-0.603,0-0.879-0.287-0.879-0.934V6.211c0.193,0,0.373-0.008,0.546-0.016
		l2.328,3.318h1.567V9.291C41.883,9.291,41.603,9.16,41.416,8.936z M37.702,5.783V3.358c0-0.496,0.102-0.615,0.654-0.615
		c1.213,0,1.66,0.598,1.66,1.492c0,1.102-0.833,1.549-2.07,1.549C37.853,5.783,37.773,5.783,37.702,5.783z"/>
	<path class="secondary-fill" d="M19.366,3.525c0-0.647,0.328-0.932,0.932-0.932V2.332h-2.892v0.262c0.602,0,0.934,0.285,0.934,0.932V8.32
		c0,0.646-0.331,0.934-0.934,0.934v0.26h2.892v-0.26c-0.604,0-0.932-0.287-0.932-0.934V3.525z"/>
	<path class="secondary-fill" d="M24.103,2.594V2.332h-2.631v0.262c0.317,0,0.654,0.205,0.877,0.746c0.225,0.539,2.594,6.287,2.594,6.287h0.167
		c0,0,2.072-5.783,2.259-6.287c0.186-0.504,0.503-0.746,0.801-0.746V2.332h-2.032v0.262c0.447,0,0.69,0.242,0.69,0.559
		c0,0.094-0.025,0.195-0.058,0.281c-0.039,0.109-1.51,4.234-1.51,4.234S23.523,3.5,23.473,3.373c-0.04-0.096-0.06-0.217-0.06-0.324
		C23.413,2.766,23.652,2.594,24.103,2.594z"/>
	<path class="secondary-fill" d="M0,0.262c0.784,0,1.193,0.391,1.193,1.51c0,1.119,0,2.594,0,4.441c0,2.244,1.232,3.434,3.378,3.434
		c1.846,0,3.265-1.121,3.265-3.285c0-1.996,0-4.104,0-4.85c0-0.746,0.224-1.25,1.119-1.25V0H6.12v0.262
		c0.802,0,1.137,0.355,1.156,1.324c0.019,0.971,0.074,3.508,0.074,5.02c0,1.51-1.082,2.461-2.556,2.461
		c-1.417,0-2.537-0.84-2.537-2.611s0-4.18,0-4.963c0-0.732,0.28-1.23,1.12-1.23V0H0V0.262z"/>
	<path class="secondary-fill" d="M13.619,2.332v0.262c0.559,0,0.894,0.43,0.894,1.082c0,0.441,0,2.5,0,3.777l-3.731-5.121H9.16v0.262
		c0.317,0,0.578,0.148,0.71,0.316c0.014,0.02,0.089,0.119,0.205,0.275c0,0.783,0,4.176,0,4.818c0,0.82-0.28,1.25-0.933,1.25v0.26
		h2.294v-0.26c-0.559,0-0.896-0.373-0.896-1.027c0-0.527,0-3.352,0-4.41c1.357,1.834,4.291,5.811,4.291,5.811h0.148
		c0,0,0-5.057,0-5.783c0-0.914,0.373-1.25,0.933-1.25V2.332H13.619z"/>
</g>
</svg>
